<?xml version="1.0" encoding="UTF-8"?>
<svg xmlns="http://www.w3.org/2000/svg" viewBox="130 10 420 388" width="420" height="388">
  <g fill="none" stroke="#58595B" stroke-width="14" stroke-linejoin="miter" stroke-miterlimit="4">
    <path d="M 152.00 20.00 L 528.00 20.00 L 540.00 32.00 L 540.00 143.79 L 528.00 155.79 L 490.80 155.79 L 478.80 143.79 L 478.80 89.82 L 470.80 81.82 L 379.20 81.82 L 371.20 89.82 L 371.20 256.77 L 359.20 268.77 L 321.60 268.77 L 309.60 256.77 L 309.60 89.82 L 301.60 81.82 L 209.20 81.82 L 201.20 89.82 L 201.20 143.79 L 189.20 155.79 L 152.00 155.79 L 140.00 143.79 L 140.00 32.00 L 152.00 20.00 Z"/>
    <path d="M 152.00 211.73 L 189.20 211.73 L 201.20 223.73 L 201.20 318.91 L 209.20 326.91 L 470.80 326.91 L 478.80 318.91 L 478.80 281.92 L 470.80 273.92 L 429.60 273.92 L 417.60 261.92 L 417.60 223.73 L 429.60 211.73 L 528.00 211.73 L 540.00 223.73 L 540.00 376.00 L 528.00 388.00 L 152.00 388.00 L 140.00 376.00 L 140.00 223.73 L 152.00 211.73 Z"/>
  </g>
</svg>